<svg t="1737484188308" class="icon" viewBox="0 0 1024 1024" version="1.1" xmlns="http://www.w3.org/2000/svg" p-id="5259" width="256" height="256"><path d="M883.2 123.7504h-264.96l53.9136-53.9648A38.4 38.4 0 1 0 617.8304 15.4624L512 121.3952 406.1696 15.5136a38.4 38.4 0 1 0-54.3232 54.3232l53.9136 53.9648H140.8A140.8512 140.8512 0 0 0 0 264.5504v614.4a140.9024 140.9024 0 0 0 140.8 140.8h538.3168a38.4 38.4 0 0 0 0-76.8H140.8c-35.2768 0-64-28.7232-64-64v-614.4c0-35.2768 28.7232-64 64-64h742.4c35.2768 0 64 28.7232 64 64v614.4c0 35.2768-28.7232 64-64 64a38.4 38.4 0 0 0 0 76.8 140.9024 140.9024 0 0 0 140.8-140.8v-614.4a141.0048 141.0048 0 0 0-140.8-140.8z" fill="#ffffff" p-id="5260"></path><path d="M883.2 789.1968V354.2528c0-49.4592-40.2432-89.7024-89.7024-89.7024H230.5024c-49.5104 0-89.7536 40.2432-89.7536 89.7024v434.944c0 49.5104 40.2432 89.7536 89.7536 89.7536h562.944c49.4592 0 89.7536-40.2432 89.7536-89.7536z m-76.8 0a13.1072 13.1072 0 0 1-12.9024 12.9536H230.5024a13.1584 13.1584 0 0 1-12.9536-12.9536V354.2528c0-7.0144 5.9392-12.9024 12.9536-12.9024h562.944c7.0144 0 12.9024 5.888 12.9024 12.9024v434.944z" fill="#ffffff" p-id="5261"></path><path d="M658.5856 488.96m-51.2 0a51.2 51.2 0 1 0 102.4 0 51.2 51.2 0 1 0-102.4 0Z" fill="#ffffff" p-id="5262"></path></svg>