<svg t="1737484512447" class="icon" viewBox="0 0 1024 1024" version="1.1" xmlns="http://www.w3.org/2000/svg" p-id="2391" width="256" height="256"><path d="M736.768 611.8912l212.992 0.256c-5.376 15.104-29.056 47.4624-38.1184 58.7008-5.76 7.168-27.4944 33.3824-33.9456 39.2448-5.12 4.6592-7.5008 7.168-11.8272 11.4688-21.4272 21.1712-27.6736 26.368-51.1744 45.312-90.2912 72.8832-212.48 120.0896-338.8416 140.288-62.9248 10.0608-112.7936 11.904-176.5376 1.8176-53.9392-8.5248-103.3216-23.5008-146.1248-45.696-44.8512-23.296-77.7728-52.224-103.8336-88.0896C25.6 742.4768 1.152 684.416 0 631.8336l0.5888 0.768c0.128 0.1792 0.4096 0.512 0.5632 0.768l0.512 0.768 10.1376 22.2208c8.0128 15.2832 16.8192 29.44 27.3408 42.5216l16.0512 18.3552c78.208 86.016 201.1136 101.8368 319.6672 88.9344 82.688-9.0112 143.6416-28.3648 215.2448-63.1296 48.0256-23.3728 99.84-67.4304 131.7376-111.1552 2.8672-3.8912 11.52-17.92 14.9248-19.968z m-147.3536-295.8848h16.4608l9.8304 0.0256H635.136l14.72-0.0256c-2.048 10.9568-9.6512 47.6672-17.0496 83.3024a10790.4 10790.4 0 0 0-24.7552 121.1904l-0.6912 3.584 25.984 0.128c32.8192 0.1792 69.2736 0.3584 97.3312 0.3584l-13.056 64.5888-65.5872 0.1024-14.08 0.0256-35.9424 0.0512H581.1968l-13.0048 0.0256h-6.144l-21.4784 0.0256H528.6912l1.3312-6.528 1.8944-9.472 23.8336-117.6576 2.688-13.2864c6.7328-33.1264 13.312-65.5104 18.176-89.6768l7.4752-36.7872h5.3248zM230.144 314.8032L191.8976 499.968c-11.52 55.8848-53.5552 89.216-112.3328 89.216-29.3632 0-52.0704-8.832-65.6896-25.6-13.184-16.2048-16.9984-38.3232-11.3152-65.6384l3.2-15.4112H70.656l-3.2768 15.7952c-2.2272 11.264-1.1008 19.9936 3.1744 25.216 3.584 4.352 9.6 6.5792 17.8176 6.5792 20.5568 0 35.072-13.312 39.8848-36.4544l37.0176-178.8928H230.144z m688.0512 2.4064c56.7296-1.92 96.4608 24.1664 105.0112 70.3232 0.6912 3.6608 0.768 13.3888 0.768 16.8192v1.2032l-63.1296-0.384-1.3824-3.584c-8.7296-22.272-24.064-31.8208-49.8176-30.8224a71.7824 71.7824 0 0 0-50.4064 22.4512c-13.9776 14.6944-23.5264 36.096-27.6224 61.8752-3.968 25.0112-1.1008 45.696 8.2944 59.8528 9.0624 13.6192 23.8336 20.5824 42.9312 19.9936 25.984-0.768 49.4336-15.9744 62.976-38.144l0.9728-1.6384 62.1312 0.1792c-3.584 10.2912-8.1152 20.3264-14.2336 29.3632-26.7776 39.5008-68.6592 61.952-119.808 63.8208a219.9296 219.9296 0 0 1-6.528 0.128c-88.32 0-109.3376-67.1488-99.2-131.3024 5.9136-37.4528 21.2736-70.1696 44.3904-94.6432 26.624-28.2368 62.848-43.9808 104.6528-45.4912zM620.3904 128.1024c78.8992-1.664 154.3936 15.1296 214.272 46.5408 32.7424 17.1776 68.5568 42.5472 94.1056 68.9664 12.3392 12.7232 37.4528 41.2928 42.5728 54.7584l-216.0128-0.128c-2.2272-6.0672-13.9264-21.2736-18.0736-26.1632-20.7616-24.6528-45.0816-44.2112-75.1104-57.9584-112.8192-51.712-260.352-24.9344-374.8864 12.4416-20.1728 6.5792-50.5856 18.944-64.8704 23.296 13.2352-6.5792 27.9552-15.232 42.496-22.272 45.056-21.8624 89.3952-41.344 137.5232-57.7024 66.944-22.7584 140.672-40.1152 217.984-41.7792z" fill="#ffffff" p-id="2392"></path><path d="M388.9664 408.5248c10.9312-2.6368 24.3968 0.9472 25.7792 9.1392 0.2816 1.7152-17.3568 44.4672-21.9904 48.9216-15.104 14.5408-43.1872 22.016-48.9984 4.1984-6.0672-18.7392 16.2048-55.296 45.2096-62.2592m37.5552 155.9552l-6.016-23.7312c-19.7888 5.2736-25.9072 10.368-53.1712 12.672-55.9616 4.736-118.7328-17.9456-113.0752-82.7648 10.1888-116.9152 168.8832-168.8576 236.2368-121.6 42.0864 29.5424 30.1056 100.9408-13.4912 127.2832-10.3936 6.272-45.0304 16.64-44.7488-4.864 0.1792-13.568 38.1696-89.6 38.1696-89.6h-34.304l-5.632 10.0352c-2.7136-5.76-8.064-13.824-33.7152-12.6208-72.32 3.4048-127.3088 103.4752-73.472 125.4656 13.2608 5.4272 29.4144 4.5312 42.9312 0.0768 16.0768-5.2736 20.2752-9.9072 31.744-17.4848 2.8672 3.3792 4.4288 29.1328 52.1728 23.552 59.2128-6.912 106.4192-61.9776 100.7616-123.8528-10.5216-115.2512-218.7264-102.528-296.448-0.7424-77.7472 101.7856-32.9728 204.8768 109.4144 193.792 17.152-1.3056 50.5344-8.0128 62.6432-15.616" fill="#ffffff" p-id="2393"></path></svg>